M48
; DRILL file {KiCad 9.0.3} date 2025-07-30T23:32:44+0930
; FORMAT={-:-/ absolute / metric / decimal}
; #@! TF.CreationDate,2025-07-30T23:32:44+09:30
; #@! TF.GenerationSoftware,Kicad,Pcbnew,9.0.3
; #@! TF.FileFunction,Plated,1,2,PTH
FMAT,2
METRIC
; #@! TA.AperFunction,Plated,PTH,ComponentDrill
T1C0.700
; #@! TA.AperFunction,Plated,PTH,ComponentDrill
T2C0.800
; #@! TA.AperFunction,Plated,PTH,ComponentDrill
T3C0.889
; #@! TA.AperFunction,Plated,PTH,ComponentDrill
T4C1.100
; #@! TA.AperFunction,Plated,PTH,ComponentDrill
T5C1.200
; #@! TA.AperFunction,Plated,PTH,ComponentDrill
T6C1.300
; #@! TA.AperFunction,Plated,PTH,ComponentDrill
T7C2.000
; #@! TA.AperFunction,Plated,PTH,ComponentDrill
T8C6.100
%
G90
G05
T1
X87.278Y-82.551
X93.088Y-72.051
X94.898Y-82.551
X100.708Y-72.051
X108.473Y-77.241
X108.973Y-83.741
X116.093Y-77.241
X116.593Y-83.741
T2
X96.783Y-90.741
X97.783Y-76.741
X97.783Y-79.281
X97.783Y-81.821
X97.783Y-84.361
X104.283Y-90.741
X105.403Y-76.741
X105.403Y-79.281
X105.403Y-81.821
X105.403Y-84.361
X106.088Y-71.551
X109.783Y-86.991
X109.783Y-94.491
X111.088Y-71.551
T3
X77.588Y-75.051
X77.588Y-77.591
X77.588Y-80.131
T4
X90.588Y-87.471
X90.588Y-90.011
X90.588Y-92.551
T5
X78.778Y-94.051
X82.588Y-94.051
T6
X79.588Y-101.801
X79.588Y-114.301
X84.588Y-101.801
X84.588Y-114.301
X133.588Y-58.551
X133.588Y-63.551
X133.588Y-68.551
T7
X127.088Y-91.051
X137.088Y-91.051
T8
X81.118Y-63.051
X108.118Y-109.551
X111.088Y-63.051
X138.088Y-109.551
M30
